<?xml version="1.0" encoding="UTF-8" standalone="no"?>
<!-- Created with Inkscape (http://www.inkscape.org/) -->

<svg
   width="64mm"
   height="64mm"
   viewBox="0 0 64 64"
   version="1.1"
   id="svg5"
   xml:space="preserve"
   inkscape:version="1.2 (dc2aedaf03, 2022-05-15)"
   sodipodi:docname="labyrinth-logo.svg"
   xmlns:inkscape="http://www.inkscape.org/namespaces/inkscape"
   xmlns:sodipodi="http://sodipodi.sourceforge.net/DTD/sodipodi-0.dtd"
   xmlns="http://www.w3.org/2000/svg"
   xmlns:svg="http://www.w3.org/2000/svg"><sodipodi:namedview
     id="namedview7"
     pagecolor="#ffffff"
     bordercolor="#666666"
     borderopacity="1.0"
     inkscape:showpageshadow="2"
     inkscape:pageopacity="0.0"
     inkscape:pagecheckerboard="0"
     inkscape:deskcolor="#d1d1d1"
     inkscape:document-units="mm"
     showgrid="true"
     inkscape:zoom="2.1745121"
     inkscape:cx="178.89071"
     inkscape:cy="82.317317"
     inkscape:window-width="1748"
     inkscape:window-height="1017"
     inkscape:window-x="1358"
     inkscape:window-y="-8"
     inkscape:window-maximized="1"
     inkscape:current-layer="layer3"><inkscape:grid
       type="xygrid"
       id="grid9" /></sodipodi:namedview><defs
     id="defs2" /><g
     inkscape:label="Layer 1"
     inkscape:groupmode="layer"
     id="layer1"
     sodipodi:insensitive="true"><rect
       style="fill:#2a7fff;stroke:#000000;stroke-width:1.94378;stroke-linecap:round;stroke-dasharray:none"
       id="rect173"
       width="15.405397"
       height="15.405396"
       x="0.97188997"
       y="0.97188997" /><rect
       style="fill:#649ef2;fill-opacity:1;stroke:#000000;stroke-width:1.94378;stroke-linecap:round;stroke-dasharray:none"
       id="rect173-6"
       width="15.405397"
       height="15.405396"
       x="16.522163"
       y="0.97188997" /><rect
       style="fill:#649ef2;fill-opacity:1;stroke:#000000;stroke-width:1.94378;stroke-linecap:round;stroke-dasharray:none"
       id="rect173-7"
       width="15.405397"
       height="15.405396"
       x="32.072437"
       y="0.97188997" /><rect
       style="fill:#649ef2;fill-opacity:1;stroke:#000000;stroke-width:1.94378;stroke-linecap:round;stroke-dasharray:none"
       id="rect173-1"
       width="15.405397"
       height="15.405396"
       x="47.622711"
       y="0.97188997" /><rect
       style="fill:#649ef2;fill-opacity:1;stroke:#000000;stroke-width:1.94378;stroke-linecap:round;stroke-dasharray:none"
       id="rect173-6-3"
       width="15.405397"
       height="15.405396"
       x="16.522163"
       y="16.522161" /><rect
       style="fill:#649ef2;fill-opacity:1;stroke:#000000;stroke-width:1.94378;stroke-linecap:round;stroke-dasharray:none"
       id="rect173-7-3"
       width="15.405397"
       height="15.405396"
       x="32.072437"
       y="16.522161" /><rect
       style="fill:#649ef2;fill-opacity:1;stroke:#000000;stroke-width:1.94378;stroke-linecap:round;stroke-dasharray:none"
       id="rect173-1-6"
       width="15.405397"
       height="15.405396"
       x="47.622711"
       y="16.522161" /><rect
       style="fill:#649ef2;fill-opacity:1;stroke:#000000;stroke-width:1.944;stroke-linecap:round;stroke-dasharray:none"
       id="rect173-6-5"
       width="15.405397"
       height="15.405396"
       x="16.522163"
       y="32.072437" /><rect
       style="fill:#649ef2;fill-opacity:1;stroke:#000000;stroke-width:1.94378;stroke-linecap:round;stroke-dasharray:none"
       id="rect173-7-1"
       width="15.405397"
       height="15.405396"
       x="32.072437"
       y="32.072437" /><rect
       style="fill:#649ef2;fill-opacity:1;stroke:#000000;stroke-width:1.94378;stroke-linecap:round;stroke-dasharray:none"
       id="rect173-1-0"
       width="15.405397"
       height="15.405396"
       x="47.622711"
       y="32.072437" /><rect
       style="fill:#2a7fff;stroke:#000000;stroke-width:1.94378;stroke-linecap:round;stroke-dasharray:none"
       id="rect173-7-6"
       width="15.405397"
       height="15.405396"
       x="32.072437"
       y="47.622711" /></g><g
     inkscape:groupmode="layer"
     id="layer3"
     inkscape:label="Layer 2"><rect
       style="fill:#649ef2;fill-opacity:1;stroke:#000000;stroke-width:0;stroke-linecap:round;stroke-dasharray:none;paint-order:normal"
       id="rect3589"
       width="26.46427"
       height="13.439801"
       x="25.612545"
       y="33.061592" /><rect
       style="fill:#649ef2;fill-opacity:1;stroke:#000000;stroke-width:0;stroke-linecap:round;stroke-dasharray:none;paint-order:normal"
       id="rect3591"
       width="13.504777"
       height="12.16748"
       x="17.483524"
       y="23.35619" /><rect
       style="fill:#649ef2;fill-opacity:1;stroke:#000000;stroke-width:0;stroke-linecap:round;stroke-dasharray:none;paint-order:normal"
       id="rect3593"
       width="13.429857"
       height="10.403195"
       x="48.609085"
       y="10.220684" /><rect
       style="fill:#649ef2;fill-opacity:1;stroke:#000000;stroke-width:0;stroke-linecap:round;stroke-dasharray:none;paint-order:normal"
       id="rect3595"
       width="35.207035"
       height="13.453437"
       x="15.409682"
       y="1.9539611" /><rect
       style="fill:#649ef2;fill-opacity:1;stroke:#000000;stroke-width:0;stroke-linecap:round;stroke-dasharray:none;paint-order:normal"
       id="rect3601"
       width="24.639147"
       height="13.505902"
       x="28.380648"
       y="17.490753" /><rect
       style="fill:#649ef2;fill-opacity:1;stroke:#000000;stroke-width:0;stroke-linecap:round;stroke-dasharray:none;paint-order:normal"
       id="rect3603"
       width="13.540889"
       height="15.557924"
       x="32.968716"
       y="33.061592" /></g><g
     inkscape:groupmode="layer"
     id="layer4"
     inkscape:label="Layer 3"><path
       id="path3606" /></g><g
     style="fill:#000000"
     id="g3743"
     transform="matrix(0.02471535,0,0,0.02471535,33.681754,1.9556113)"><g
       id="SVGRepo_bgCarrier"
       stroke-width="0" /><g
       id="SVGRepo_tracerCarrier"
       stroke-linecap="round"
       stroke-linejoin="round" /><g
       id="SVGRepo_iconCarrier">

<circle
   cx="256"
   cy="164.063"
   fill="#5b412c"
   r="150.5"
   id="circle3665" />

<path
   d="m 368.883,451.68 c 0,62.344 -225.764,62.344 -225.764,0 0,-62.342 50.539,-112.881 112.881,-112.881 62.344,0 112.883,50.539 112.883,112.881 z"
   fill="#0a717f"
   id="path3667" />

<path
   d="m 256,338.799 c -55.721,0 -102.008,40.376 -111.212,93.467 19.419,50.416 203.007,50.416 222.425,0 C 358.01,379.175 311.723,338.799 256,338.799 Z"
   fill="#19929b"
   id="path3669" />

<circle
   cx="256"
   cy="354.92599"
   fill="#ffbf94"
   r="44.716999"
   id="circle3671" />

<path
   d="m 256,310.209 c -19.94,0 -36.826,13.057 -42.592,31.084 5.766,18.027 22.651,31.083 42.592,31.083 19.942,0 36.829,-13.056 42.594,-31.083 C 292.828,323.266 275.941,310.209 256,310.209 Z"
   fill="#ed9572"
   id="path3673" />

<path
   d="m 174.884,150.063 c 0,38.936 -38.536,66.62 -45.013,59.904 -12,-12.441 -19.987,-34.618 -19.987,-59.904 0,-38.937 18.938,-70.5 42.3,-70.5 23.362,0 22.7,31.563 22.7,70.5 z"
   fill="#7c4e2e"
   id="path3675" />

<circle
   cx="116.731"
   cy="235.50101"
   fill="#ffbf94"
   r="36.536999"
   id="circle3677" />

<path
   d="m 116.731,257.858 c -17.752,0 -32.542,-12.662 -35.843,-29.447 -0.451,2.294 -0.693,4.663 -0.693,7.09 0,20.178 16.358,36.536 36.537,36.536 20.179,0 36.537,-16.358 36.537,-36.536 0,-2.427 -0.242,-4.796 -0.693,-7.09 -3.303,16.785 -18.093,29.447 -35.845,29.447 z"
   fill="#ed9572"
   id="path3679" />

<circle
   cx="395.26999"
   cy="235.50101"
   fill="#ffbf94"
   r="36.536999"
   id="circle3681" />

<path
   d="m 395.27,257.858 c -17.752,0 -32.541,-12.662 -35.844,-29.447 -0.451,2.294 -0.693,4.663 -0.693,7.09 0,20.178 16.359,36.536 36.537,36.536 20.18,0 36.537,-16.358 36.537,-36.536 0,-2.427 -0.242,-4.796 -0.693,-7.09 -3.301,16.785 -18.093,29.447 -35.844,29.447 z"
   fill="#ed9572"
   id="path3683" />

<path
   d="M 383.998,180.969 C 381.141,112.743 328.225,58.303 256.031,58.273 v -0.001 c -0.01,0 -0.02,0 -0.031,0 -0.01,0 -0.02,0 -0.029,0 v 0.001 c -72.194,0.03 -125.109,54.471 -127.967,122.696 h -0.124 v 78.526 h 0.124 c 2.857,68.224 60.13,100.864 127.967,100.884 v 0 c 0.01,0 0.02,0 0.029,0 0.012,0 0.021,0 0.031,0 v 0 c 67.836,-0.02 125.11,-32.66 127.967,-100.884 h 0.123 v -78.526 z"
   fill="#fff2dc"
   id="path3685" />

<path
   d="M 383.998,180.969 C 381.141,112.743 328.225,58.303 256.031,58.273 v -0.001 c -0.01,0 -0.02,0 -0.031,0 -0.01,0 -0.02,0 -0.029,0 v 0.001 c -72.194,0.03 -125.109,54.471 -127.967,122.696 h -0.124 v 78.526 h 0.124 c 2.857,68.224 60.13,100.864 127.967,100.884 v 0 c 0.01,0 0.02,0 0.029,0 0.012,0 0.021,0 0.031,0 v 0 c 67.836,-0.02 125.11,-32.66 127.967,-100.884 h 0.123 v -78.526 z"
   fill="#ffbf94"
   id="path3687" />

<path
   d="m 300.711,355.178 c -0.137,24.58 -20.1,44.465 -44.711,44.465 -24.646,0 -44.632,-19.941 -44.712,-44.569 -3.446,-0.869 -6.823,-1.85 -10.126,-2.936 -0.046,0.924 -0.071,1.853 -0.071,2.788 0,30.326 24.584,54.91 54.909,54.91 30.327,0 54.911,-24.584 54.911,-54.91 0,-0.889 -0.025,-1.771 -0.066,-2.649 -3.308,1.075 -6.687,2.041 -10.134,2.901 z"
   fill="#ffffff"
   id="path3689" />

<path
   d="m 252.135,38.563 c 61.365,0 80.678,28.38 109.133,52.487 23.367,19.8 57.232,11.227 57.232,11.966 0,28.162 -106.367,50.991 -166.365,50.991 -59.998,0 -102.635,-22.829 -102.635,-50.991 0,-28.162 42.637,-64.453 102.635,-64.453 z"
   fill="#7c4e2e"
   id="path3691" />

<path
   d="m 142.119,451.68 c 0,17.054 16.901,29.436 41.444,37.159 V 364.302 c -25.292,20.7 -41.444,52.146 -41.444,87.378 z"
   fill="#e5e5e5"
   id="path3693" />

<path
   d="m 369.883,451.68 c 0,-31.801 -13.158,-60.522 -34.318,-81.038 v 115.745 c 20.63,-7.79 34.318,-19.358 34.318,-34.707 z"
   fill="#e5e5e5"
   id="path3695" />

<path
   d="m 143.788,432.266 c 4.819,12.511 19.754,21.914 39.775,28.215 v -96.183 c -20.538,16.81 -35.049,40.707 -39.775,67.968 z"
   fill="#ffffff"
   id="path3697" />

<path
   d="m 368.213,432.266 c -4.158,-23.99 -15.896,-45.376 -32.648,-61.62 v 87.376 c 16.402,-6.198 28.419,-14.78 32.648,-25.756 z"
   fill="#ffffff"
   id="path3699" />

<circle
   cx="174.202"
   cy="269.85501"
   fill="#f97a7a"
   r="30.538"
   id="circle3701" />

<circle
   cx="337.79999"
   cy="269.85501"
   fill="#f97a7a"
   r="30.538"
   id="circle3703" />

<circle
   cx="208.28101"
   cy="216.414"
   fill="#493e2f"
   r="17.450001"
   id="circle3705" />

<circle
   cx="303.38199"
   cy="216.414"
   fill="#493e2f"
   r="17.450001"
   id="circle3707" />

<path
   d="m 256.545,293.734 c -9.077,0 -18.154,-3.455 -25.065,-10.365 -2.343,-2.344 -2.343,-6.143 0,-8.486 2.343,-2.342 6.143,-2.342 8.485,0 9.144,9.145 24.019,9.143 33.16,0 2.344,-2.342 6.143,-2.342 8.486,0 2.344,2.344 2.344,6.143 0,8.486 -6.91,6.91 -15.988,10.365 -25.066,10.365 z"
   fill="#f97a7a"
   id="path3709" />

</g></g><g
     style="fill:#000000;stroke:#000000"
     id="g3914"
     transform="matrix(0.02438968,0,0,0.02438968,48.383997,33.499794)"><g
       id="SVGRepo_bgCarrier-3"
       stroke-width="0" /><g
       id="SVGRepo_tracerCarrier-7"
       stroke-linecap="round"
       stroke-linejoin="round" /><g
       id="SVGRepo_iconCarrier-4"> <g
   transform="translate(1,1)"
   id="g3873"> <g
   id="g3837"> <path
   style="fill:#cb06c4"
   d="m 164.552,251.135 c -1.736,0 -3.471,0 -4.339,-0.868 l -43.39,-26.034 c -2.603,-1.736 -4.339,-4.339 -4.339,-7.81 0,-165.749 52.936,-212.61 55.539,-215.214 3.471,-3.471 9.546,-2.603 12.149,0.868 3.471,3.471 2.603,8.678 -0.868,12.149 -0.868,0.868 -47.729,44.258 -49.464,196.99 l 39.051,23.431 c 4.339,2.603 5.207,7.81 2.603,12.149 -0.867,2.604 -4.338,4.339 -6.942,4.339 z"
   id="path3815" /> <path
   style="fill:#cb06c4"
   d="m 216.62,337.915 c -1.736,0 -2.603,0 -4.339,-0.868 L 64.756,258.945 C 63.02,258.077 61.285,256.342 60.417,253.738 28.308,144.396 85.583,67.162 88.186,63.691 c 2.603,-3.471 8.678,-4.339 12.149,-1.736 3.471,2.603 4.339,8.678 1.736,12.149 -0.868,0.868 -52.936,72.027 -26.034,170.956 l 144.054,76.366 c 4.339,2.603 6.075,7.81 3.471,12.149 -0.867,2.604 -3.471,4.34 -6.942,4.34 z"
   id="path3817" /> <path
   style="fill:#cb06c4"
   d="m 112.485,502.796 c -3.471,0 -6.075,-1.736 -7.81,-4.339 -1.736,-3.471 -46.861,-91.986 -17.356,-163.146 0.868,-4.339 4.339,-6.075 7.81,-6.075 h 112.814 c 5.207,0 8.678,3.471 8.678,8.678 0,5.207 -3.471,8.678 -8.678,8.678 h -106.74 c -21.695,63.349 18.224,143.186 19.092,143.186 2.603,4.339 0.868,9.546 -3.471,11.281 -1.736,1.737 -2.604,1.737 -4.339,1.737 z"
   id="path3819" /> <path
   style="fill:#cb06c4"
   d="m 181.908,511.474 c -1.736,0 -4.339,-0.868 -6.075,-2.603 -2.603,-2.603 -71.159,-67.688 -36.447,-140.583 0.868,-2.603 3.471,-4.339 6.942,-5.207 l 60.746,-8.678 c 5.207,-0.868 9.546,2.603 9.546,6.942 0,4.339 -2.603,9.546 -6.942,9.546 l -56.407,7.81 c -25.166,59.878 33.844,115.417 34.712,116.285 3.471,3.471 3.471,8.678 0.868,12.149 -2.604,3.471 -4.339,4.339 -6.943,4.339 z"
   id="path3821" /> <path
   style="fill:#cb06c4"
   d="m 242.654,476.762 c -19.092,0 -34.712,-15.62 -34.712,-34.712 0,-19.092 15.62,-34.712 34.712,-34.712 5.207,0 8.678,3.471 8.678,8.678 0,5.207 -3.471,8.678 -8.678,8.678 -9.546,0 -17.356,7.81 -17.356,17.356 0,9.546 7.81,17.356 17.356,17.356 5.207,0 8.678,3.471 8.678,8.678 0,5.207 -3.471,8.678 -8.678,8.678 z"
   id="path3823" /> <path
   style="fill:#cb06c4"
   d="m 277.366,476.762 c -5.207,0 -8.678,-3.471 -8.678,-8.678 0,-5.207 3.471,-8.678 8.678,-8.678 9.546,0 17.356,-7.81 17.356,-17.356 0,-9.546 -7.81,-17.356 -17.356,-17.356 -5.207,0 -8.678,-3.471 -8.678,-8.678 0,-5.207 3.471,-8.678 8.678,-8.678 19.092,0 34.712,15.62 34.712,34.712 0,19.092 -15.621,34.712 -34.712,34.712 z"
   id="path3825" /> <path
   style="fill:#cb06c4"
   d="m 355.468,251.135 c -2.603,0 -6.075,-1.736 -7.81,-4.339 -2.603,-4.339 -0.868,-9.546 2.603,-12.149 l 39.051,-23.431 c 0,-153.6 -47.729,-196.122 -47.729,-196.122 -3.471,-3.471 -4.339,-8.678 -0.868,-12.149 3.471,-3.471 8.678,-4.339 12.149,-0.868 1.736,1.736 54.671,48.597 54.671,214.346 0,3.471 -1.736,6.075 -4.339,7.81 l -43.39,26.034 c -0.867,0.868 -2.603,0.868 -4.338,0.868 z"
   id="path3827" /> <path
   style="fill:#cb06c4"
   d="m 303.4,337.915 c -3.471,0 -6.075,-1.736 -7.81,-4.339 -2.603,-4.339 -0.868,-9.546 3.471,-12.149 l 144.054,-76.366 c 27.77,-98.929 -25.166,-170.088 -26.034,-170.956 -2.603,-3.471 -1.736,-9.546 1.736,-12.149 3.471,-2.603 9.546,-1.736 12.149,1.736 2.603,3.471 59.878,80.705 27.77,190.047 -0.868,2.603 -2.603,4.339 -4.339,5.207 l -147.525,78.102 c -0.869,0.867 -1.737,0.867 -3.472,0.867 z"
   id="path3829" /> <path
   style="fill:#cb06c4"
   d="m 407.535,502.796 c -1.736,0 -2.603,0 -4.339,-0.868 -4.339,-2.603 -6.075,-7.81 -3.471,-11.281 0,-0.868 40.786,-80.705 19.092,-143.186 H 312.078 c -5.207,0 -8.678,-3.471 -8.678,-8.678 0,-5.207 3.471,-8.678 8.678,-8.678 h 112.814 c 3.471,0 6.942,1.736 7.81,5.207 28.637,71.159 -15.62,159.675 -17.356,163.146 -1.736,2.603 -4.339,4.338 -7.811,4.338 z"
   id="path3831" /> <path
   style="fill:#cb06c4"
   d="m 338.112,511.474 c -2.603,0 -4.339,-0.868 -6.075,-2.603 -3.471,-3.471 -3.471,-8.678 0.868,-12.149 0.868,-0.868 59.01,-56.407 34.712,-116.285 l -56.407,-7.81 c -4.339,-0.868 -7.81,-5.207 -6.942,-9.546 0.868,-4.339 5.207,-7.81 9.546,-6.942 l 60.746,8.678 c 2.603,0 5.207,2.603 6.942,5.207 34.712,72.895 -33.844,137.98 -36.447,140.583 -2.604,-0.001 -5.208,0.867 -6.943,0.867 z"
   id="path3833" /> <path
   style="fill:#cb06c4"
   d="m 346.79,216.423 c 0,52.936 -42.522,95.458 -95.458,95.458 -52.936,0 -95.458,-42.522 -95.458,-95.458 0,-52.936 42.522,-95.458 95.458,-95.458 52.936,0 95.458,42.523 95.458,95.458"
   id="path3835" /> </g> <path
   style="fill:#cb06c4"
   d="m 251.332,120.966 c -4.339,0 -8.678,0 -13.017,0.868 46.861,6.075 82.441,45.993 82.441,94.59 0,48.597 -35.58,88.515 -82.441,94.59 4.339,0.868 8.678,0.868 13.017,0.868 52.936,0 95.458,-42.522 95.458,-95.458 0,-52.936 -42.522,-95.458 -95.458,-95.458"
   id="path3839" /> <path
   style="fill:#ffffff"
   d="m 251.332,120.966 c 4.339,0 8.678,0 13.017,0.868 -46.861,6.075 -82.441,45.993 -82.441,94.59 0,48.597 35.58,88.515 82.441,94.59 -4.339,0.868 -8.678,0.868 -13.017,0.868 -52.936,0 -95.458,-42.522 -95.458,-95.458 0,-52.936 42.522,-95.458 95.458,-95.458"
   id="path3841" /> <path
   style="fill:#cb06c4"
   d="m 303.4,363.949 c 0,28.637 -23.431,52.068 -52.068,52.068 -28.637,0 -52.068,-23.431 -52.068,-52.068 0,-28.637 23.431,-52.068 52.068,-52.068 28.637,0 52.068,23.43 52.068,52.068"
   id="path3843" /> <path
   style="fill:#cb06c4"
   d="m 251.332,311.881 c -2.603,0 -6.075,0 -8.678,0.868 24.298,4.339 43.39,25.166 43.39,51.2 0,26.034 -19.092,46.861 -43.39,51.2 2.603,0.868 6.075,0.868 8.678,0.868 28.637,0 52.068,-23.431 52.068,-52.068 0,-28.638 -23.431,-52.068 -52.068,-52.068"
   id="path3845" /> <path
   style="fill:#ffffff"
   d="m 251.332,311.881 c 2.603,0 6.075,0 8.678,0.868 -24.298,4.339 -43.39,25.166 -43.39,51.2 0,26.034 19.092,46.861 43.39,51.2 -2.603,0.868 -6.075,0.868 -8.678,0.868 -28.637,0 -52.068,-23.431 -52.068,-52.068 0,-28.638 23.431,-52.068 52.068,-52.068"
   id="path3847" /> <path
   d="m 251.332,320.559 c -57.275,0 -104.136,-46.861 -104.136,-104.136 0,-57.275 46.861,-104.136 104.136,-104.136 57.275,0 104.136,46.861 104.136,104.136 0,57.275 -46.861,104.136 -104.136,104.136 z m 0,-190.915 c -47.729,0 -86.78,39.051 -86.78,86.78 0,47.729 39.051,86.78 86.78,86.78 47.729,0 86.78,-39.051 86.78,-86.78 0,-47.729 -39.051,-86.78 -86.78,-86.78 z"
   id="path3849" /> <path
   d="m 251.332,424.694 c -33.844,0 -60.746,-26.902 -60.746,-60.746 0,-33.844 26.902,-60.746 60.746,-60.746 33.844,0 60.746,26.902 60.746,60.746 0,33.844 -26.902,60.746 -60.746,60.746 z m 0,-104.135 c -24.298,0 -43.39,19.092 -43.39,43.39 0,24.298 19.092,43.39 43.39,43.39 24.298,0 43.39,-19.092 43.39,-43.39 0,-24.299 -19.092,-43.39 -43.39,-43.39 z"
   id="path3851" /> <path
   d="m 155.874,251.135 c -1.736,0 -3.471,0 -4.339,-0.868 l -43.39,-26.034 c -2.603,-1.736 -4.339,-4.339 -4.339,-7.81 0,-165.749 52.936,-212.61 55.539,-215.214 3.471,-3.471 9.546,-2.603 12.149,0.868 3.471,3.471 2.603,8.678 -0.868,12.149 -0.868,0.868 -48.597,45.125 -49.464,196.99 l 39.051,23.431 c 4.339,2.603 5.207,7.81 2.603,12.149 -0.867,2.604 -4.338,4.339 -6.942,4.339 z"
   id="path3853" /> <path
   d="m 207.942,337.915 c -1.736,0 -2.603,0 -4.339,-0.868 L 56.078,258.945 c -1.736,-0.868 -3.471,-2.603 -4.339,-5.207 C 19.63,144.396 76.905,67.162 79.508,63.691 c 2.603,-3.471 8.678,-4.339 12.149,-1.736 3.471,2.603 4.339,8.678 1.736,12.149 -0.868,0.868 -52.936,72.027 -26.034,170.956 l 144.054,76.366 c 4.339,2.603 6.075,7.81 3.471,12.149 -0.867,2.604 -3.471,4.34 -6.942,4.34 z"
   id="path3855" /> <path
   d="m 103.807,502.796 c -3.471,0 -6.075,-1.736 -7.81,-4.339 -1.736,-3.471 -46.861,-91.986 -17.356,-163.146 0.868,-4.339 4.339,-6.075 7.81,-6.075 h 112.814 c 5.207,0 8.678,3.471 8.678,8.678 0,5.207 -3.471,8.678 -8.678,8.678 H 92.525 c -21.695,63.349 18.224,143.186 19.092,143.186 2.603,4.339 0.868,9.546 -3.471,11.281 -1.736,1.737 -2.604,1.737 -4.339,1.737 z"
   id="path3857" /> <path
   d="m 173.23,511.474 c -1.736,0 -4.339,-0.868 -6.075,-2.603 -2.603,-2.603 -71.159,-67.688 -36.447,-140.583 0.868,-2.603 3.471,-4.339 6.942,-5.207 l 60.746,-8.678 c 4.339,-0.868 9.546,2.603 9.546,6.942 0.868,4.339 -2.603,9.546 -6.942,9.546 l -56.407,7.81 c -25.166,59.878 33.844,115.417 34.712,116.285 3.471,3.471 3.471,8.678 0.868,12.149 -2.604,3.471 -4.339,4.339 -6.943,4.339 z"
   id="path3859" /> <path
   d="m 233.976,476.762 c -19.092,0 -34.712,-15.62 -34.712,-34.712 0,-19.092 15.62,-34.712 34.712,-34.712 5.207,0 8.678,3.471 8.678,8.678 0,5.207 -3.471,8.678 -8.678,8.678 -9.546,0 -17.356,7.81 -17.356,17.356 0,9.546 7.81,17.356 17.356,17.356 5.207,0 8.678,3.471 8.678,8.678 0,5.207 -3.471,8.678 -8.678,8.678 z"
   id="path3861" /> <path
   d="m 268.688,476.762 c -5.207,0 -8.678,-3.471 -8.678,-8.678 0,-5.207 3.471,-8.678 8.678,-8.678 9.546,0 17.356,-7.81 17.356,-17.356 0,-9.546 -7.81,-17.356 -17.356,-17.356 -5.207,0 -8.678,-3.471 -8.678,-8.678 0,-5.207 3.471,-8.678 8.678,-8.678 19.092,0 34.712,15.62 34.712,34.712 0,19.092 -15.621,34.712 -34.712,34.712 z"
   id="path3863" /> <path
   d="m 346.79,251.135 c -2.603,0 -6.075,-1.736 -7.81,-4.339 -2.603,-4.339 -0.868,-9.546 2.603,-12.149 l 39.051,-23.431 c 0,-153.6 -47.729,-196.122 -47.729,-196.122 -3.471,-3.471 -4.339,-8.678 -0.868,-12.149 3.471,-3.471 8.678,-4.339 12.149,-0.868 1.736,1.736 54.671,48.597 54.671,214.346 0,3.471 -1.736,6.075 -4.339,7.81 l -43.39,26.034 c -0.867,0.868 -2.603,0.868 -4.338,0.868 z"
   id="path3865" /> <path
   d="m 294.722,337.915 c -3.471,0 -6.075,-1.736 -7.81,-4.339 -2.603,-4.339 -0.868,-9.546 3.471,-12.149 l 144.054,-76.366 c 27.77,-98.929 -25.166,-170.088 -26.034,-170.956 -2.603,-3.471 -1.736,-9.546 1.736,-12.149 3.472,-2.603 9.546,-1.736 12.149,1.736 2.603,3.471 59.878,80.705 27.77,190.047 -0.868,2.603 -2.603,4.339 -4.339,5.207 l -147.525,78.102 c -0.869,0.867 -1.737,0.867 -3.472,0.867 z"
   id="path3867" /> <path
   d="m 398.857,502.796 c -1.736,0 -2.603,0 -4.339,-0.868 -4.339,-2.603 -6.075,-7.81 -3.471,-11.281 0,-0.868 40.786,-80.705 19.092,-143.186 H 303.4 c -5.207,0 -8.678,-3.471 -8.678,-8.678 0,-5.207 3.471,-8.678 8.678,-8.678 h 112.814 c 3.471,0 6.942,1.736 7.81,5.207 28.637,71.159 -15.62,159.675 -17.356,163.146 -1.736,2.603 -4.339,4.338 -7.811,4.338 z"
   id="path3869" /> <path
   d="m 329.434,511.474 c -2.603,0 -4.339,-0.868 -6.075,-2.603 -3.471,-3.471 -3.471,-8.678 0.868,-12.149 0.868,-0.868 59.01,-56.407 34.712,-116.285 l -56.407,-7.81 c -4.339,-0.868 -7.81,-5.207 -6.942,-9.546 0.868,-4.339 5.207,-7.81 9.546,-6.942 l 60.746,8.678 c 2.603,0 5.207,2.603 6.942,5.207 34.712,72.895 -33.844,137.98 -36.447,140.583 -2.604,-0.001 -5.208,0.867 -6.943,0.867 z"
   id="path3871" /> </g> </g></g><g
     style="fill:#000000"
     id="g4058"
     transform="matrix(0.02284996,0,0,0.02284996,18.96174,18.435549)"><g
       id="SVGRepo_bgCarrier-4"
       stroke-width="0" /><g
       id="SVGRepo_tracerCarrier-2"
       stroke-linecap="round"
       stroke-linejoin="round" /><g
       id="SVGRepo_iconCarrier-5"> <path
   style="fill:#b30000"
   d="M 470.595,223.948 C 443.054,131.446 357.386,63.985 255.941,63.985 c -101.446,0 -187.129,67.461 -214.67,159.963 h -9.279 v 63.985 c 0,123.69 100.258,223.949 223.949,223.949 123.676,0 223.949,-100.259 223.949,-223.949 v -63.985 z"
   id="path4016" /> <g
   id="g4032"> <path
   style="fill:#ffdbe6"
   d="m 117.16,463.706 c 6.795,5.374 13.918,10.356 21.323,14.934 V 398.565 H 117.16 c 0,0 0,65.141 0,65.141 z"
   id="path4018" /> <path
   style="fill:#ffdbe6"
   d="m 63.985,403.344 c 6.295,10.466 13.45,20.37 21.323,29.618 v -81.7 L 63.985,329.267 Z"
   id="path4020" /> <path
   style="fill:#ffdbe6"
   d="m 181.286,499.12 c 6.952,2.452 14.075,4.576 21.323,6.357 v -74.358 h -21.323 z"
   id="path4022" /> <path
   style="fill:#ffdbe6"
   d="m 245.272,511.632 c 3.53,0.156 7.092,0.25 10.669,0.25 3.578,0 7.123,-0.094 10.654,-0.25 v -70.391 h -21.324 v 70.391 z"
   id="path4024" /> <path
   style="fill:#ffdbe6"
   d="m 330.58,499.12 v -68.001 h -21.322 v 74.358 c 7.263,-1.781 14.371,-3.905 21.322,-6.357 z"
   id="path4026" /> <path
   style="fill:#ffdbe6"
   d="m 394.566,463.815 v -65.251 h -21.324 v 80.169 c 7.404,-4.562 14.529,-9.544 21.324,-14.918 z"
   id="path4028" /> <path
   style="fill:#ffdbe6"
   d="m 447.898,403.344 v -76.295 l -21.34,24.213 v 81.7 c 7.889,-9.248 15.028,-19.152 21.34,-29.618 z"
   id="path4030" /> </g> <path
   style="fill:#d51515"
   d="m 479.89,223.948 c 0,123.69 -100.273,223.949 -223.949,223.949 C 132.251,447.897 31.992,347.638 31.992,223.948 31.992,100.265 132.251,0 255.941,0 379.617,0 479.89,100.265 479.89,223.948 Z"
   id="path4034" /> <path
   style="fill:#ffdbe6"
   d="M 303.929,319.926 H 282.591 V 117.308 c 0,-5.89 -4.764,-10.669 -10.654,-10.669 -1.938,0 -3.732,0.522 -5.295,1.413 v -0.008 l -74.655,42.662 h 0.016 c -3.218,1.844 -5.39,5.296 -5.39,9.256 0,5.89 4.78,10.662 10.669,10.662 1.921,0 3.734,-0.516 5.296,-1.406 v 0 l 26.697,-15.254 v 165.962 h -21.323 v 0 c -5.889,0 -10.669,4.779 -10.669,10.653 0,5.905 4.78,10.685 10.669,10.685 v 0 h 95.978 c 5.891,0 10.654,-4.779 10.654,-10.685 0,-5.873 -4.764,-10.653 -10.655,-10.653 z m -53.331,-178.147 10.669,-6.1 v 184.247 h -10.669 z"
   id="path4036" /> </g></g></svg>
